<?xml version="1.0" encoding="UTF-8"?>
<svg width="5px" height="25px" viewBox="0 0 5 25" version="1.1" xmlns="http://www.w3.org/2000/svg" xmlns:xlink="http://www.w3.org/1999/xlink">
    <!-- Generator: Sketch 55.2 (78181) - https://sketchapp.com -->
    <title>Group 4 Copy 5</title>
    <desc>Created with Sketch.</desc>
    <g id="Page-1" stroke="none" stroke-width="1" fill="none" fill-rule="evenodd">
        <g id="ELEMENTOS" transform="translate(-980.000000, -289.000000)" fill="#000000">
            <g id="Group-4-Copy-5" transform="translate(982.500000, 301.500000) rotate(-90.000000) translate(-982.500000, -301.500000) translate(970.000000, 299.000000)">
                <path d="M12.5007134,0 C11.0917186,0 10,1.16116262 10,2.5067889 C10,3.84293503 11.0917551,5 12.5007134,5 C13.9011114,5 15,3.84970657 15,2.5067889 C15,1.15439108 13.8996847,0 12.5007134,0 Z" id="Fill-1"></path>
                <path d="M2.50071317,0 C1.09171827,0 2.84217094e-14,1.16116262 2.84217094e-14,2.5067889 C2.84217094e-14,3.84293503 1.09175521,5 2.50071317,5 C3.90111128,5 5,3.84970657 5,2.5067889 C5,1.15439108 3.89968458,0 2.50071317,0 Z" id="Fill-2"></path>
                <path d="M22.5007134,0 C21.0917186,0 20,1.16116262 20,2.5067889 C20,3.84293503 21.0917551,5 22.5007134,5 C23.9011114,5 25,3.84970657 25,2.5067889 C25,1.15439108 23.8996847,0 22.5007134,0 Z" id="Fill-3"></path>
            </g>
        </g>
    </g>
</svg>