<?xml version="1.0" encoding="UTF-8"?>
<svg width="38px" height="38px" viewBox="0 0 38 38" version="1.1" xmlns="http://www.w3.org/2000/svg" xmlns:xlink="http://www.w3.org/1999/xlink">
    <!-- Generator: Sketch 55.2 (78181) - https://sketchapp.com -->
    <title>Fill 1 Copy</title>
    <desc>Created with Sketch.</desc>
    <g id="Page-1" stroke="none" stroke-width="1" fill="none" fill-rule="evenodd">
        <g id="ELEMENTOS" transform="translate(-48.000000, -714.000000)" fill="#000000">
            <path d="M74.0232147,732.991992 C74.0232147,735.837093 72.3105622,738.40083 69.6823192,739.489486 C67.0560807,740.57773 64.0303604,739.975376 62.0206151,737.965574 C60.0087625,735.95372 59.4084603,732.929952 60.4967039,730.301811 C61.5849476,727.673567 64.1489405,725.960914 66.9921389,725.960914 C70.8732603,725.966938 74.0175093,729.111178 74.0236773,732.992455 L74.0232147,732.991992 Z M70.9392066,732.991992 C70.9392066,731.39576 69.9774587,729.956196 68.5037141,729.345768 C67.0279648,728.733387 65.3293446,729.072705 64.2009574,730.201118 C63.0725703,731.329506 62.7332266,733.028126 63.3456078,734.503876 C63.9559844,735.977621 65.3955993,736.93937 66.9918305,736.93937 C69.1703224,736.93736 70.937202,735.170485 70.9392066,732.991992 Z M86,731.881646 L86,734.102287 C86.0039744,735.829024 84.761114,737.306778 83.0604891,737.603922 L81.3739479,737.901077 C81.1651349,738.515463 80.9161629,739.117821 80.6290572,739.700082 L81.6109025,741.103564 C82.6047755,742.515063 82.4381363,744.43856 81.2153631,745.657309 L79.6472478,747.225425 C78.4264946,748.446178 76.5050034,748.612817 75.0935043,747.620964 L73.700098,746.629096 C73.1178373,746.916212 72.5194884,747.165199 71.9071071,747.373987 L71.613967,749.060528 C71.3168126,750.761153 69.839069,752 68.1123329,752 L65.8816699,752 C64.158943,751.995984 62.6892589,750.757144 62.3920633,749.060528 L62.0989232,747.373987 C61.486542,747.165173 60.8861885,746.916201 60.3059323,746.629096 L58.8864148,747.61495 C57.4749157,748.608823 55.5534245,748.44018 54.3326713,747.219411 L52.7605468,745.647286 C51.537789,744.426532 51.3711498,742.50504 52.3629976,741.093541 L53.3508568,739.700134 C53.0717695,739.115868 52.828837,738.511505 52.6260121,737.895115 L50.9394709,737.59796 C49.2408506,737.30281 48,735.82707 48,734.102338 L48,731.881697 C48.0020097,730.16704 49.2307762,728.697304 50.9193734,728.392089 L52.6260121,728.082887 C52.8368349,727.470505 53.083792,726.872156 53.3709028,726.289895 L52.3690114,724.886414 C51.377143,723.474914 51.5437823,721.553422 52.7645509,720.332669 L54.3326662,718.764553 C55.5534194,717.543799 57.4749106,717.37716 58.8864097,718.369013 L60.2898904,719.350859 C60.8721511,719.069762 61.4705,718.828839 62.0828812,718.626014 L62.3920839,716.919375 C62.6972722,715.230777 64.1669819,714.002005 65.8816904,714 L68.1023304,714 C69.8290665,714 71.3048158,715.238847 71.6039646,716.939472 L71.8951001,718.626014 C72.5114905,718.828803 73.1158533,719.069741 73.7001186,719.350859 L75.1035993,718.369013 C76.5150984,717.377144 78.4365896,717.543784 79.6573428,718.764553 L81.2254581,720.332669 C82.4482159,721.551418 82.6148551,723.474914 81.6209975,724.886414 L80.6391522,726.289895 C80.9262682,726.870151 81.1752556,727.470505 81.3840429,728.082887 L83.0705841,728.376027 C84.7692044,728.679206 86.0039898,730.156939 86,731.881672 L86,731.881646 Z M82.915952,731.881646 C82.915952,731.652756 82.7513122,731.457996 82.5264366,731.419846 L79.9082165,730.962066 C79.3179374,730.857662 78.8400704,730.421954 78.6854588,729.841697 C78.4144053,728.829731 78.010832,727.859964 77.4888122,726.952443 C77.1936624,726.436437 77.2217731,725.79594 77.5610911,725.308049 L79.1030951,723.133566 C79.2315955,722.946839 79.2095088,722.693853 79.0508931,722.533212 L77.4827778,720.965096 C77.3221524,720.802461 77.0671615,720.782384 76.8824243,720.912894 L74.7079416,722.454899 C74.2160269,722.798236 73.571536,722.826347 73.0514695,722.527178 C72.1459533,722.003153 71.1741824,721.601564 70.1642211,721.330531 C69.583965,721.17392 69.1462415,720.698052 69.0438524,720.105768 L68.5599664,717.453417 C68.5218172,717.228541 68.3270621,717.061892 68.098167,717.063884 L65.8815362,717.063884 C65.6526463,717.061892 65.457886,717.228541 65.4197368,717.453417 L64.961957,720.069582 C64.857553,720.661866 64.4218444,721.137729 63.8415882,721.294345 C62.8296224,721.565399 61.8598561,721.966967 60.9523353,722.490992 C60.4363293,722.786142 59.7958323,722.758031 59.3079422,722.418713 L57.1334595,720.876708 C56.9467331,720.744194 56.6897324,720.76628 56.5270921,720.92891 L54.9589768,722.497026 C54.8003611,722.657652 54.7782745,722.910638 54.9087794,723.09738 L56.4507835,725.271864 C56.794121,725.763779 56.8222317,726.40827 56.5210577,726.926332 C55.999038,727.833853 55.5954441,728.805624 55.3244112,729.815586 C55.1738242,730.413935 54.6799049,730.865691 54.0695283,730.962066 L51.4533643,731.419846 C51.2284887,731.457996 51.0618392,731.652751 51.0638309,731.881646 L51.0638309,734.102287 C51.0618443,734.331177 51.2284887,734.527942 51.4533643,734.566091 L54.0695283,735.023871 L54.0695283,735.021861 C54.6618121,735.126265 55.1376745,735.563979 55.2942907,736.14223 C55.5653442,737.154197 55.9669129,738.125968 56.4909373,739.031485 C56.7901015,739.5515 56.7619907,740.196006 56.4186584,740.687957 L54.8766544,742.862441 L54.8766544,742.860436 C54.748154,743.047163 54.7682309,743.300149 54.9288563,743.462795 L56.4969716,745.030911 C56.6575971,745.191536 56.9105834,745.213623 57.0973252,745.081103 L59.2718079,743.539098 C59.7637226,743.195761 60.4082135,743.16765 60.9262754,743.466819 C61.8337962,743.990844 62.8055671,744.394438 63.8155284,744.665471 C64.4118727,744.814048 64.8616239,745.303964 64.9620084,745.908327 L65.4197882,748.524494 L65.4197882,748.526501 C65.4579374,748.751377 65.6526925,748.916017 65.8815876,748.916017 L68.1022276,748.916017 C68.3311176,748.916017 68.5278824,748.751377 68.5660316,748.526501 L69.0238115,745.910336 L69.0218069,745.908327 C69.1262108,745.318047 69.5639241,744.84018 70.1421756,744.685568 C71.1541414,744.414515 72.1259124,744.010941 73.0314285,743.488921 C73.5514437,743.189757 74.19595,743.215858 74.6879007,743.5612 L76.8623834,745.103205 L76.8603736,745.103205 C77.0471,745.231705 77.3000864,745.209619 77.4627318,745.051003 L79.0308471,743.482887 C79.1914725,743.322262 79.2135592,743.06727 79.0810445,742.882533 L77.5390404,740.70805 C77.195703,740.216135 77.1675922,739.571644 77.4667616,739.051577 C77.9907859,738.14606 78.3943798,737.174289 78.6654127,736.164327 C78.820014,735.584071 79.2978914,735.146347 79.8881705,735.043958 L82.5264366,734.560072 C82.7513122,734.521923 82.915952,734.327168 82.915952,734.098272 L82.915952,731.881646 Z" id="Fill-1-Copy"></path>
        </g>
    </g>
</svg>