<?xml version="1.0" encoding="UTF-8"?>
<svg width="237px" height="40px" viewBox="0 0 237 40" version="1.1" xmlns="http://www.w3.org/2000/svg" xmlns:xlink="http://www.w3.org/1999/xlink">
    <!-- Generator: Sketch 55.2 (78181) - https://sketchapp.com -->
    <title>Group 2</title>
    <desc>Created with Sketch.</desc>
    <defs>
        <polygon id="path-1" points="0.5949 0.883 7.2979 0.883 7.2979 40 0.5949 40"></polygon>
        <polygon id="path-3" points="0.2006 0.883 50.0336 0.883 50.0336 40 0.2006 40"></polygon>
        <polygon id="path-5" points="0.1635 0.883 49.9965 0.883 49.9965 39.9998 0.1635 39.9998"></polygon>
    </defs>
    <g id="Page-1" stroke="none" stroke-width="1" fill="none" fill-rule="evenodd">
        <g id="ELEMENTOS" transform="translate(-505.000000, -42.000000)">
            <g id="Group-2" transform="translate(505.000200, 41.117200)">
                <polygon id="Fill-1" fill="#000000" points="235.8468 40 236.7288 40 236.7288 0.882 235.8468 0.882"></polygon>
                <g id="Group-4" transform="translate(145.999800, 0.000000)">
                    <mask id="mask-2" fill="white">
                        <use xlink:href="#path-1"></use>
                    </mask>
                    <g id="Clip-3"></g>
                    <path d="M7.2959,4.2334 C7.2959,2.3824 5.7959,0.8824 3.9459,0.8824 C2.0949,0.8824 0.5949,2.3824 0.5949,4.2334 L0.5969,4.2334 L0.5969,36.6514 C0.5969,38.5004 2.0969,40.0004 3.9479,40.0004 C5.7979,40.0004 7.2979,38.5004 7.2979,36.6514 L7.2979,4.2334 L7.2959,4.2334 Z" id="Fill-2" fill="#000000" mask="url(#mask-2)"></path>
                </g>
                <g id="Group-7" transform="translate(24.999800, 0.000000)">
                    <mask id="mask-4" fill="white">
                        <use xlink:href="#path-3"></use>
                    </mask>
                    <g id="Clip-6"></g>
                    <path d="M46.6816,0.8828 L3.5516,0.8828 C1.7006,0.8828 0.2006,2.3828 0.2006,4.2338 L0.2006,36.6518 C0.2006,38.4998 1.7006,39.9998 3.5516,39.9998 C5.4016,39.9998 6.9016,38.4998 6.9016,36.6518 L6.9016,7.5838 L43.3316,7.5838 L43.3316,22.4838 L22.1356,22.4838 L22.1356,22.4868 C21.5026,22.4668 20.8586,22.6188 20.2766,22.9758 C18.6946,23.9388 18.1986,26.0008 19.1626,27.5808 L19.1626,27.5778 L25.7806,38.3948 C26.7436,39.9748 28.8056,40.4738 30.3856,39.5078 C31.9646,38.5448 32.4616,36.4828 31.4986,34.9038 L28.0256,29.2238 L46.6816,29.2238 L46.6816,29.1838 C48.5336,29.1838 50.0336,27.6838 50.0336,25.8328 L50.0336,4.2338 C50.0336,2.3828 48.5336,0.8828 46.6816,0.8828" id="Fill-5" fill="#000000" mask="url(#mask-4)"></path>
                </g>
                <g id="Group-10" transform="translate(163.999800, 0.000000)">
                    <mask id="mask-6" fill="white">
                        <use xlink:href="#path-5"></use>
                    </mask>
                    <g id="Clip-9"></g>
                    <path d="M46.6445,0.8828 L3.5145,0.8828 C1.6635,0.8828 0.1635,2.3828 0.1635,4.2338 L0.1635,36.6518 C0.1635,38.4998 1.6635,39.9998 3.5145,39.9998 C5.3645,39.9998 6.8645,38.4998 6.8645,36.6518 L6.8645,7.5838 L43.2955,7.5838 L43.2955,22.4838 L20.0105,22.4838 L20.0105,22.4858 C18.1615,22.4858 16.6615,23.9858 16.6615,25.8358 C16.6615,27.6868 18.1615,29.1868 20.0105,29.1868 L20.0105,29.1838 L46.6445,29.2238 L46.6445,29.1838 C48.4965,29.1838 49.9965,27.6838 49.9965,25.8328 L49.9965,4.2338 C49.9965,2.3828 48.4965,0.8828 46.6445,0.8828" id="Fill-8" fill="#000000" mask="url(#mask-6)"></path>
                </g>
                <path d="M6.701,20.4414 C6.701,22.2924 5.201,23.7924 3.349,23.7924 C1.5,23.7924 -4.4408921e-13,22.2924 -4.4408921e-13,20.4414 C-4.4408921e-13,18.5904 1.5,17.0904 3.349,17.0904 C5.201,17.0904 6.701,18.5904 6.701,20.4414" id="Fill-49" fill="#000000"></path>
                <path d="M135.7312,4.2256 C135.7312,2.3796 134.2352,0.8826 132.3892,0.8826 C131.2292,0.8826 130.2072,1.4756 129.6092,2.3746 L129.6002,2.3696 L110.8152,30.6006 L92.0312,2.3696 L92.0222,2.3746 C91.4222,1.4756 90.4032,0.8826 89.2422,0.8826 C87.3962,0.8826 85.8992,2.3796 85.8992,4.2256 C85.8992,4.9096 86.1072,5.5456 86.4602,6.0756 L86.4522,6.0806 L108.0242,38.5056 L108.0332,38.4996 C108.6322,39.3996 109.6552,39.9926 110.8152,39.9926 C111.9752,39.9926 112.9972,39.3996 113.5952,38.4996 L113.6042,38.5056 L135.1792,6.0806 L135.1702,6.0756 C135.5242,5.5456 135.7312,4.9096 135.7312,4.2256" id="Fill-50" fill="#000000"></path>
            </g>
        </g>
    </g>
</svg>