<?xml version="1.0" encoding="UTF-8"?>
<svg width="50px" height="29px" viewBox="0 0 50 29" version="1.1" xmlns="http://www.w3.org/2000/svg" xmlns:xlink="http://www.w3.org/1999/xlink">
    <!-- Generator: Sketch 55.2 (78181) - https://sketchapp.com -->
    <title>Group 7</title>
    <desc>Created with Sketch.</desc>
    <g id="Page-1" stroke="none" stroke-width="1" fill="none" fill-rule="evenodd">
        <g id="ELEMENTOS" transform="translate(-42.000000, -457.000000)" fill="#000000" stroke="#000000" stroke-width="0.882000052">
            <g id="Group-7" transform="translate(42.000000, 458.000000)">
                <path d="M9.99707692,17.5281923 C13.3225077,17.5281923 16.0273077,14.9198885 16.0273077,11.71125 C16.0273077,8.50458462 13.3224,5.89638462 9.99707692,5.89638462 C6.67164615,5.89638462 3.96684615,8.50468846 3.96684615,11.7133269 C3.96684615,14.9199923 6.67175385,17.5281923 9.99707692,17.5281923 Z M9.99707692,8.34403846 C11.9237462,8.34403846 13.4907769,9.85510385 13.4907769,11.7129635 C13.4907769,13.5708231 11.9237462,15.0818885 9.99707692,15.0818885 C8.07040769,15.0818885 6.50337692,13.5708231 6.50337692,11.7129635 C6.50337692,9.85510385 8.07040769,8.34403846 9.99707692,8.34403846 Z" id="Fill-1"></path>
                <path d="M3.0772,26.0871923 C3.0772,23.5883942 5.18479231,21.5560731 7.77613846,21.5560731 L12.2184462,21.5560731 C12.3509562,21.5560731 12.4834715,21.5621585 12.6138815,21.572299 C12.9819685,21.6027208 13.3458662,21.4830537 13.6129969,21.2477798 C13.8738169,21.0165612 14.0168431,20.7001471 14.0168431,20.3594279 C14.0168431,19.7347413 13.5204462,19.1992587 12.8873123,19.1404298 C12.6664569,19.1201487 12.4435015,19.1100019 12.2163354,19.1100019 L7.77402769,19.1100019 C3.78607385,19.1079779 0.538181538,22.2395625 0.538181538,26.087426 L0.538181538,26.5904308 L3.07692,26.5904308 L3.0772,26.0871923 Z" id="Fill-2"></path>
                <path d="M14.469,26.5903269 L17.0077385,26.5903269 L17.0077385,23.5763481 C17.0077385,20.7510058 19.3908615,18.4529942 22.3208462,18.4529942 L27.2196077,18.4529942 C30.1495923,18.4529942 32.5327154,20.7510058 32.5327154,23.5763481 L32.5327154,26.5903269 L35.0714538,26.5903269 L35.0714538,23.5763481 C35.0714538,21.0207462 33.74,18.6537808 31.5125462,17.2443288 C30.2316,16.4330308 28.7466308,16.0050808 27.2216538,16.0050808 L22.3228923,16.0050808 C19.8977154,16.0050808 17.6450077,17.0699192 16.1413538,18.9257538 C15.0497308,20.2725346 14.4733615,21.8809038 14.4733615,23.5765038 L14.469,26.5903269 Z" id="Fill-3"></path>
                <path d="M41.7625385,19.1082115 L37.3202308,19.1082115 C37.1961315,19.1082115 37.0720323,19.1122667 36.9500385,19.1183521 C36.2664615,19.1548592 35.7301,19.6923617 35.7301,20.3454502 C35.7301,20.6821402 35.8752315,21.0066387 36.1276354,21.2358271 C36.3821446,21.4670458 36.7166046,21.5826577 37.0615431,21.5644015 C37.1477831,21.5583162 37.2340177,21.556286 37.3202577,21.556286 L41.7625654,21.556286 C44.3539115,21.556286 46.4615038,23.5886071 46.4615038,26.0874052 L46.4615038,26.59041 L49.0002423,26.59041 L49.0002423,26.0874052 C49.0002423,22.2398013 45.7526731,19.1084244 41.7627808,19.1084244 L41.7625385,19.1082115 Z" id="Fill-4"></path>
                <path d="M39.5413846,17.5281923 C42.8668154,17.5281923 45.5737692,14.9198885 45.5737692,11.71125 C45.5737692,8.50458462 42.8688615,5.89638462 39.5413846,5.89638462 C36.2138538,5.89638462 33.509,8.50468846 33.509,11.7133269 C33.509,14.9199923 36.2160077,17.5281923 39.5413846,17.5281923 Z M39.5413846,8.34403846 C41.4680538,8.34403846 43.0350846,9.85510385 43.0350846,11.7129635 C43.0350846,13.5708231 41.4680538,15.0818885 39.5413846,15.0818885 C37.6147154,15.0818885 36.0476846,13.5708231 36.0476846,11.7129635 C36.0476846,9.85510385 37.6147154,8.34403846 39.5413846,8.34403846 Z" id="Fill-5"></path>
                <path d="M24.7692308,15.0436731 C28.9528077,15.0436731 32.3561538,11.7619788 32.3561538,7.72771154 C32.3561538,3.69354808 28.9529154,0.41175 24.7692308,0.41175 C20.5855462,0.41175 17.1823077,3.69344423 17.1823077,7.72771154 C17.1823077,11.75985 20.5855462,15.0436731 24.7692308,15.0436731 Z M24.7692308,2.85784615 C27.5541,2.85784615 29.8194077,5.04225 29.8194077,7.72765962 C29.8194077,10.4130692 27.5541,12.5974731 24.7692308,12.5974731 C21.9843615,12.5974731 19.7190538,10.4130692 19.7190538,7.72765962 C19.7190538,5.04225 21.9843615,2.85784615 24.7692308,2.85784615 Z" id="Fill-6"></path>
            </g>
        </g>
    </g>
</svg>