<?xml version="1.0" encoding="UTF-8"?>
<svg width="38px" height="38px" viewBox="0 0 38 38" version="1.1" xmlns="http://www.w3.org/2000/svg" xmlns:xlink="http://www.w3.org/1999/xlink">
    <!-- Generator: Sketch 55.2 (78181) - https://sketchapp.com -->
    <title>Group 8</title>
    <desc>Created with Sketch.</desc>
    <g id="Page-1" stroke="none" stroke-width="1" fill="none" fill-rule="evenodd">
        <g id="ELEMENTOS" transform="translate(-48.000000, -625.000000)" fill="#000000">
            <g id="Group-8" transform="translate(48.000000, 625.000000)">
                <path d="M20.2812609,11.28125 L29.8233913,11.28125 C30.5672,11.28125 31.1867652,10.6875 31.1867652,9.97468333 C31.1851502,9.26186667 30.5236239,8.70833333 29.8217804,8.70833333 L20.2813022,8.70833333 C19.5374935,8.70833333 18.9179283,9.30208333 18.9179283,10.0149 C18.9179283,10.7277167 19.5374935,11.28125 20.2813022,11.28125 L20.2812609,11.28125 Z" id="Fill-1"></path>
                <path d="M9.3356087,12.9049583 C9.58407913,13.1817329 9.95517391,13.3007917 10.3262522,13.3007917 C10.6973304,13.3007917 11.0700609,13.1430758 11.3168957,12.9049583 L15.2827739,8.7875 C15.7780957,8.2726 15.7377826,7.4423 15.2004874,6.96603333 C14.6632004,6.49135 13.7968004,6.52998333 13.2998265,7.04489125 L10.3262439,10.1342517 L9.21135696,8.98696833 C8.71603522,8.47206833 7.84798304,8.433435 7.31069609,8.90811042 C6.77340913,9.38279375 6.73309609,10.2146771 7.22840957,10.7295771 L9.3356087,12.9049583 Z" id="Fill-2"></path>
                <path d="M20.2812609,20.3066458 L29.8233913,20.3066458 C30.5672,20.3066458 31.1867652,19.7128958 31.1867652,19.0000792 C31.1867652,18.2872625 30.5672,17.6935125 29.8233913,17.6935125 L20.2812609,17.6935125 C19.5374522,17.6935125 18.917887,18.2872625 18.917887,19.0000792 C18.917887,19.7128958 19.5374522,20.3066458 20.2812609,20.3066458 Z" id="Fill-3"></path>
                <path d="M9.3356087,21.928375 C9.58407913,22.2051496 9.95517391,22.3242083 10.3262522,22.3242083 C10.6973304,22.3242083 11.0700609,22.1664925 11.3168957,21.928375 L15.2827739,17.8125 C15.7780957,17.2976 15.7377826,16.4673 15.2004874,15.9910333 C14.6632004,15.51635 13.7968004,15.5549833 13.2998265,16.0698912 L10.3262439,19.1577079 L9.21135696,18.0104246 C8.71603522,17.4955246 7.84798304,17.4568912 7.31069609,17.9315667 C6.77340913,18.4062421 6.73309609,19.2381333 7.22840957,19.7530333 L9.3356087,21.928375 Z" id="Fill-4"></path>
                <path d="M20.2812609,29.2916667 L29.8233913,29.2916667 C30.5672,29.2916667 31.1867652,28.6979167 31.1867652,27.9851 C31.1867652,27.2722833 30.5672,26.6785333 29.8233913,26.6785333 L20.2812609,26.6785333 C19.5374522,26.6785333 18.917887,27.2722833 18.917887,27.9851 C18.917887,28.7380938 19.5374522,29.2916667 20.2812609,29.2916667 Z" id="Fill-5"></path>
                <path d="M9.3356087,30.9537708 C9.58407913,31.2305454 9.95517391,31.3496042 10.3262522,31.3496042 C10.6973304,31.3496042 11.0700609,31.1918883 11.3168957,30.9537708 L15.2827739,26.8378958 C15.7780957,26.3229958 15.7377826,25.4926958 15.2004874,25.0164292 C14.6632004,24.5417458 13.7968004,24.5803792 13.2998265,25.0952871 L10.3262439,28.1831037 L9.21135696,27.0358204 C8.71603522,26.5209204 7.84798304,26.4822871 7.31069609,26.9569625 C6.77340913,27.4316458 6.73309609,28.2635292 7.22840957,28.7784292 L9.3356087,30.9537708 Z" id="Fill-6"></path>
                <path d="M36.3478261,0.197916667 L1.65217391,0.197916667 C0.908365217,0.197916667 0.2888,0.791666667 0.2888,1.50448333 L0.2888,36.5357333 C0.2888,37.24855 0.908365217,37.8423 1.65217391,37.8423 L36.3478261,37.8423 C37.0916348,37.8423 37.7112,37.24855 37.7112,36.5357333 L37.7112,1.50448333 C37.7112,0.791666667 37.0916348,0.197916667 36.3478261,0.197916667 Z M35.0264174,35.2291667 L2.97341739,35.2291667 L2.97341739,2.77083333 L35.0264174,2.77083333 L35.0264174,35.2291667 Z" id="Fill-7"></path>
            </g>
        </g>
    </g>
</svg>