<?xml version="1.0" encoding="UTF-8"?>
<svg width="38px" height="35px" viewBox="0 0 38 35" version="1.1" xmlns="http://www.w3.org/2000/svg" xmlns:xlink="http://www.w3.org/1999/xlink">
    <!-- Generator: Sketch 55.2 (78181) - https://sketchapp.com -->
    <title>Group 6</title>
    <desc>Created with Sketch.</desc>
    <g id="Page-1" stroke="none" stroke-width="1" fill="none" fill-rule="evenodd">
        <g id="ELEMENTOS" transform="translate(-47.000000, -807.000000)" fill="#000000">
            <g id="Group-6" transform="translate(47.000000, 807.000000)">
                <g id="Group-3">
                    <path d="M21.415375,0.198863636 C11.8350208,-0.278090909 3.8795625,7.19965909 3.40495833,16.6639773 L1.3855754,16.6639773 C0.436208729,16.6639773 -0.118907938,17.6987045 0.355775396,18.4941591 L4.5524,25.3752386 C5.02708333,26.1302841 6.13573333,26.1302841 6.61041667,25.3752386 L10.8070417,18.4941591 C11.281725,17.6987045 10.7281838,16.6639773 9.77724167,16.6639773 L7.48109167,16.6639773 C7.91714167,9.54545455 13.8947792,3.93670455 21.1373417,4.25528409 C27.9068833,4.53338295 33.5273208,10.2211932 33.7252375,17.0617045 C33.963355,24.5779545 27.9452792,30.7427273 20.5435917,30.7427273 C17.534625,30.7427273 14.6060917,29.708 12.2714667,27.8001818 C11.9544913,27.522083 11.4798,27.560925 11.2030333,27.879417 L9.54085,29.748417 C9.22387458,30.0669091 9.26407542,30.6230989 9.61970792,30.9011898 C12.7075246,33.446008 16.5467913,34.8380534 20.5838954,34.8380534 C30.3221871,34.8380534 38.1984788,26.6846443 37.8026454,16.7820307 C37.4068121,7.95447386 30.2030413,0.636689773 21.4159371,0.198792045 L21.415375,0.198863636 Z" id="Fill-1"></path>
                    <path d="M21.4537708,7.676375 L19.6725208,7.676375 C19.3168883,7.676375 19.0385542,7.95463295 19.0385542,8.31353409 L19.0385542,9.90444318 L18.8421852,9.94328523 C16.5862519,10.4606489 15.0817685,12.5689216 15.2796852,14.9148761 C15.5178027,17.2608307 17.6144685,19.0910125 20.0296852,19.0910125 L21.2171852,19.0910125 C21.6532352,19.0910125 22.0490685,19.2898761 22.3258352,19.6083761 C22.6026098,19.9268682 22.7618852,20.3634216 22.7216685,20.7611489 C22.6428106,21.5161943 21.9300019,22.1127852 21.0981185,22.1127852 L19.5147852,22.1127852 C19.0787352,22.1127852 18.6829019,21.7942932 18.5654185,21.3577398 C18.4865606,21.0796409 18.2484431,20.8807852 17.9314519,20.8807852 L16.1099852,20.8807852 C15.9120685,20.8807852 15.7543527,20.9600205 15.6353019,21.0796489 C15.516251,21.1992773 15.477586,21.3981409 15.477586,21.5566034 C15.6755027,23.3463761 17.0207027,24.8176489 18.8019527,25.1361489 L18.9596685,25.176542 L18.9596685,26.727042 C18.9596685,27.0843761 19.2364431,27.364042 19.5936352,27.364042 L21.3748852,27.364042 C21.7305177,27.364042 22.0088519,27.0859432 22.0088519,26.727042 L22.0088519,25.0569057 L22.1665677,25.0165125 C24.1055177,24.539558 25.531151,22.9082398 25.7290677,20.9986716 C25.8481265,19.6858534 25.4120923,18.4134443 24.5415677,17.4191261 C23.671051,16.465217 22.4433344,15.9074443 21.1367677,15.9074443 L19.751351,15.9074443 C19.315301,15.9074443 18.9194677,15.7085807 18.642701,15.3900807 C18.3659265,15.0715886 18.206651,14.6350352 18.2468677,14.1968989 C18.3257256,13.4418534 19.0385344,12.8452625 19.8704177,12.8452625 L21.453751,12.8452625 C21.889801,12.8452625 22.2856344,13.1637545 22.4031177,13.600308 C22.4819756,13.8784068 22.7200931,14.1176716 23.0370844,14.1176716 L24.858551,14.1176716 C25.0564677,14.1176716 25.2141835,14.0384364 25.3332344,13.918808 C25.4522931,13.7991795 25.531151,13.6003159 25.4909502,13.4418534 C25.2930335,11.6520807 23.9478335,10.180808 22.1665835,9.86230795 L22.0088677,9.82191477 L22.0088677,8.27141477 C22.0877256,7.95447386 21.810951,7.676375 21.4537906,7.676375 L21.4537708,7.676375 Z" id="Fill-2"></path>
                </g>
            </g>
        </g>
    </g>
</svg>