<?xml version="1.0" encoding="UTF-8"?>
<svg width="34px" height="38px" viewBox="0 0 34 38" version="1.1" xmlns="http://www.w3.org/2000/svg" xmlns:xlink="http://www.w3.org/1999/xlink">
    <!-- Generator: Sketch 55.2 (78181) - https://sketchapp.com -->
    <title>Fill 9</title>
    <desc>Created with Sketch.</desc>
    <g id="Page-1" stroke="none" stroke-width="1" fill="none" fill-rule="evenodd">
        <g id="ELEMENTOS" transform="translate(-50.000000, -278.000000)" fill="#000000" stroke="#000000" stroke-width="0.799999952">
            <g id="Fill-9" transform="translate(51.000000, 279.000000)">
                <path d="M21.004992,34.8173126 L21.004992,24.4559858 L10.9228615,24.4559858 L10.9228615,34.8173126 C10.9228615,35.5122106 10.4317313,36 9.7321026,36 L1.19075891,36 C0.491118366,36 0,35.5121989 0,34.8173126 L0,13.7453546 C0,13.3979114 0.138996995,13.0504565 0.491130227,12.8410505 L15.1950279,0.252539163 C15.6861581,-0.0949039851 16.3162794,-0.0949039851 16.7356367,0.321569514 L31.5806842,12.9100808 C31.861003,13.1194692 32,13.4669123 32,13.7453487 L32,34.8173067 C32,35.5122048 31.4393683,36 30.8092411,36 L22.1961364,36 C21.5660032,36 21.0053774,35.512193 21.0053774,34.8173067 L21.004992,34.8173126 Z M23.3865098,23.3426881 L23.3865098,33.6350964 L29.6184525,33.6350964 L29.6184525,14.3025925 L15.9642826,2.75846049 L2.3795014,14.3025925 L2.3795014,33.6350964 L8.54205536,33.6350964 L8.54205536,23.3426881 C8.54205536,22.64779 9.10268705,22.1600006 9.73281428,22.1600006 L22.1966998,22.1600006 C22.8963403,22.1600006 23.3874587,22.6478018 23.3874587,23.3426881 L23.3865098,23.3426881 Z" id="Fill-1"></path>
            </g>
        </g>
    </g>
</svg>