<?xml version="1.0" encoding="UTF-8"?>
<svg width="99px" height="101px" viewBox="0 0 99 101" version="1.1" xmlns="http://www.w3.org/2000/svg" xmlns:xlink="http://www.w3.org/1999/xlink">
    <!-- Generator: Sketch 55.2 (78181) - https://sketchapp.com -->
    <title>Group 24</title>
    <desc>Created with Sketch.</desc>
    <defs>
        <polygon id="path-1" points="0 0.882583333 98.9050704 0.882583333 98.9050704 100.583333 0 100.583333"></polygon>
    </defs>
    <g id="Page-1" stroke="none" stroke-width="1" fill="none" fill-rule="evenodd">
        <g id="ELEMENTOS" transform="translate(-164.000000, -125.000000)">
            <g id="Group-24" transform="translate(164.000000, 124.000000)">
                <g id="Group-3" transform="translate(0.000000, 0.534083)">
                    <mask id="mask-2" fill="white">
                        <use xlink:href="#path-1"></use>
                    </mask>
                    <g id="Clip-2"></g>
                    <path d="M84.003662,0.882583333 L14.9022535,0.882583333 C6.67267606,0.882583333 -0.000563380282,7.59475 -0.000563380282,15.87375 L-0.000563380282,85.5978333 C-0.000563380282,93.8754167 6.67267606,100.583333 14.9022535,100.583333 L84.003662,100.583333 C92.2332394,100.583333 98.9050704,93.8754167 98.9050704,85.5978333 L98.9050704,15.87375 C98.9050704,7.59475 92.2332394,0.882583333 84.003662,0.882583333" id="Fill-1" fill="#000000" mask="url(#mask-2)"></path>
                </g>
                <path d="M64.3926761,35.3683583 L38.9912676,35.3683583 L38.9912676,52.586525 C38.9912676,53.6816083 38.108169,54.5698583 37.0166197,54.5698583 C35.9278873,54.5698583 35.0433803,53.6816083 35.0433803,52.586525 L35.0433803,33.3836083 C35.0433803,32.2871083 35.9278873,31.3974417 37.0166197,31.3974417 L62.4194366,31.3974417 C63.5095775,31.3974417 64.3926761,32.2871083 64.3926761,33.3836083 L64.3926761,35.3683583 Z M50.4011268,39.8931917 C50.4011268,38.795275 51.2842254,37.907025 52.3743662,37.907025 L62.2673239,37.907025 L62.2673239,37.9056083 C63.3588732,37.9056083 64.2419718,38.7938583 64.2419718,39.8903583 C64.2419718,40.988275 63.3588732,41.876525 62.2673239,41.876525 L52.3743662,41.876525 C51.2842254,41.876525 50.4011268,40.988275 50.4011268,39.8931917 L50.4011268,39.8931917 Z M64.3926761,46.1789417 C64.3926761,47.2754417 63.5095775,48.1636917 62.4194366,48.1636917 L62.4194366,48.187775 L51.4321127,48.187775 L53.4771831,51.5509417 C54.0433803,52.4873583 53.751831,53.708525 52.8208451,54.2794417 C51.8926761,54.8503583 50.6771831,54.5556917 50.108169,53.6206917 L46.2123944,47.2116917 L46.2123944,47.2131083 C45.6419718,46.2781083 45.936338,45.055525 46.8687324,44.486025 C47.2109859,44.2749417 47.5898592,44.184275 47.9616901,44.197025 L47.9616901,44.1941917 L58.5659155,44.1941917 L60.4461972,44.1941917 L64.3926761,44.1941917 L64.3926761,46.1789417 Z M64.2419718,21.421275 L34.6814085,21.421275 C31.1602817,21.421275 28.3067606,24.2928583 28.3067606,27.834525 L28.3067606,57.6596083 C28.3067606,61.1998583 31.1602817,64.0714417 34.6814085,64.0714417 L64.2419718,64.0714417 C67.7630986,64.0714417 70.6152113,61.1998583 70.6152113,57.6596083 L70.6152113,27.834525 C70.6152113,24.2928583 67.7630986,21.421275 64.2419718,21.421275 L64.2419718,21.421275 Z" id="Fill-4" fill="#FFFFFF"></path>
                <path d="M56.7576056,73.3098083 C56.7576056,72.9060583 56.4322535,72.5788083 56.0294366,72.5788083 C55.6280282,72.5788083 55.3040845,72.9060583 55.3040845,73.3098083 L55.3040845,80.3818083 C55.3040845,80.7855583 55.6280282,81.1128083 56.0308451,81.1128083 C56.4322535,81.1128083 56.7576056,80.7855583 56.7576056,80.3818083 L56.7576056,73.3098083 Z" id="Fill-6" fill="#FFFFFF"></path>
                <path d="M22.1005634,72.579375 L12.7442254,72.579375 C12.3428169,72.579375 12.0188732,72.9052083 12.0188732,73.310375 L12.0188732,80.382375 C12.0188732,80.786125 12.3428169,81.1119583 12.7442254,81.1119583 C13.1470423,81.1119583 13.4709859,80.786125 13.4709859,80.382375 L13.4709859,74.0399583 L21.3723944,74.0399583 L21.3723944,77.2912083 L16.7752113,77.2912083 C16.6385915,77.2869583 16.496338,77.322375 16.3723944,77.398875 C16.0287324,77.6085417 15.9216901,78.0590417 16.1301408,78.4032917 L16.1315493,78.4032917 L17.5653521,80.7620417 C17.7766197,81.1077083 18.2216901,81.2167917 18.5653521,81.0042917 C18.9076056,80.7960417 19.0160563,80.344125 18.8061972,79.999875 L18.0526761,78.7617083 L22.1005634,78.7617083 L22.1005634,78.7532083 C22.5005634,78.7532083 22.8273239,78.4259583 22.8273239,78.0222083 L22.8273239,73.310375 C22.8273239,72.9052083 22.5005634,72.579375 22.1005634,72.579375" id="Fill-8" fill="#FFFFFF"></path>
                <path d="M31.8702817,76.1155167 L31.8702817,76.1155167 L28.8167606,76.1155167 C28.4139437,76.1155167 28.0885915,76.44135 28.0885915,76.8465167 C28.0885915,77.24885 28.4139437,77.5761 28.8167606,77.5761 L28.8167606,77.5775167 L31.8702817,77.5775167 L31.8702817,77.5761 C32.2716901,77.5761 32.5984507,77.24885 32.5984507,76.8465167 C32.5984507,76.44135 32.2716901,76.1155167 31.8702817,76.1155167" id="Fill-10" fill="#FFFFFF"></path>
                <path d="M35.2635211,79.6516583 L26.6367606,79.6516583 L26.6367606,74.0402417 L35.2635211,74.0402417 C35.6649296,74.0402417 35.9916901,73.7144083 35.9916901,73.3092417 C35.9916901,72.9054917 35.6649296,72.5796583 35.2635211,72.5796583 L25.91,72.5796583 C25.5085915,72.5796583 25.1832394,72.9054917 25.1832394,73.3092417 L25.1832394,80.3826583 C25.1832394,80.7864083 25.5085915,81.1122417 25.91,81.1122417 L35.2635211,81.1122417 C35.6649296,81.1122417 35.9916901,80.7864083 35.9916901,80.3826583 C35.9916901,79.9774917 35.6649296,79.6516583 35.2635211,79.6516583" id="Fill-12" fill="#FFFFFF"></path>
                <path d="M73.0056338,79.6516583 L64.3774648,79.6516583 L64.3774648,74.0402417 L73.0056338,74.0402417 C73.4070423,74.0402417 73.7323944,73.7144083 73.7323944,73.3092417 C73.7323944,72.9054917 73.4070423,72.5796583 73.0056338,72.5796583 L63.6492958,72.5796583 C63.2492958,72.5796583 62.9253521,72.9054917 62.9253521,73.3092417 L62.9253521,80.3826583 C62.9253521,80.7864083 63.2492958,81.1122417 63.6507042,81.1122417 L73.0056338,81.1122417 C73.4070423,81.1122417 73.7323944,80.7864083 73.7323944,80.3826583 C73.7323944,79.9774917 73.4070423,79.6516583 73.0056338,79.6516583" id="Fill-14" fill="#FFFFFF"></path>
                <path d="M50.6023944,79.6516583 L50.6023944,79.6516583 L43.6108451,79.6516583 L43.6108451,74.0402417 L50.6023944,74.0402417 C51.0967606,74.0416583 51.4967606,74.4439917 51.4967606,74.939825 L51.4967606,78.752075 C51.4967606,79.2479083 51.0967606,79.6502417 50.6023944,79.6516583 M50.6023944,72.5796583 L42.1573239,72.5796583 L42.1573239,81.1122417 L50.6023944,81.1122417 C51.9009859,81.1122417 52.9502817,80.0554083 52.9502817,78.752075 L52.9502817,74.939825 C52.9502817,73.6364917 51.9009859,72.5796583 50.6023944,72.5796583" id="Fill-16" fill="#FFFFFF"></path>
                <path d="M84.54,79.6516583 L84.54,79.6516583 L78.4357746,79.6516583 C77.9414085,79.6502417 77.5414085,79.2479083 77.5414085,78.752075 L77.5414085,74.939825 C77.5414085,74.4439917 77.9414085,74.0416583 78.4357746,74.0402417 L84.54,74.0402417 C85.0357746,74.0416583 85.4343662,74.4439917 85.4343662,74.939825 L85.4343662,78.752075 C85.4343662,79.2479083 85.0357746,79.6502417 84.54,79.6516583 M84.54,72.5796583 L78.4357746,72.5796583 C77.1385915,72.5796583 76.0878873,73.6364917 76.0878873,74.939825 L76.0878873,78.752075 C76.0878873,80.0554083 77.1385915,81.1122417 78.4357746,81.1122417 L84.54,81.1122417 C85.8371831,81.1122417 86.8878873,80.0554083 86.8878873,78.752075 L86.8878873,74.939825 C86.8878873,73.6364917 85.8371831,72.5796583 84.54,72.5796583" id="Fill-18" fill="#FFFFFF"></path>
                <path d="M39.8011268,76.8473667 C39.8011268,77.2497 39.4771831,77.5783667 39.0743662,77.5783667 C38.6715493,77.5783667 38.3476056,77.2497 38.3476056,76.8473667 C38.3476056,76.4436167 38.6715493,76.11495 39.0743662,76.11495 C39.4771831,76.11495 39.8011268,76.4436167 39.8011268,76.8473667" id="Fill-20" fill="#FFFFFF"></path>
                <path d="M60.5688732,76.8473667 C60.5688732,77.2497 60.2435211,77.5783667 59.8407042,77.5783667 C59.4392958,77.5783667 59.1139437,77.2497 59.1139437,76.8473667 C59.1139437,76.4436167 59.4392958,76.11495 59.8407042,76.11495 C60.2435211,76.11495 60.5688732,76.4436167 60.5688732,76.8473667" id="Fill-22" fill="#FFFFFF"></path>
            </g>
        </g>
    </g>
</svg>