<?xml version="1.0" encoding="UTF-8"?>
<svg width="29px" height="38px" viewBox="0 0 29 38" version="1.1" xmlns="http://www.w3.org/2000/svg" xmlns:xlink="http://www.w3.org/1999/xlink">
    <!-- Generator: Sketch 55.2 (78181) - https://sketchapp.com -->
    <title>Group 4</title>
    <desc>Created with Sketch.</desc>
    <g id="Page-1" stroke="none" stroke-width="1" fill="none" fill-rule="evenodd">
        <g id="ELEMENTOS" transform="translate(-50.000000, -536.000000)" fill="#000000">
            <g id="Group-4" transform="translate(50.000000, 536.000000)">
                <path d="M13.8591,24.8805826 L14.7419,31.7190957 C14.81612,32.2999504 15.3161,32.7336461 15.90595,32.7336461 L16.7497,32.7336461 L17.72625,35.9863625 C18.023125,36.9718677 18.93525,37.6456573 19.97235,37.6456573 C21.00945,37.6456573 21.92155,36.9718677 22.21845,35.9863625 L23.1872,32.7336461 L24.03095,32.7336461 C24.6208,32.7336461 25.1208,32.2999504 25.195,31.7190957 L26.0778,24.8805826 L27.7809,24.8805826 C28.4274,24.8805826 28.9528,24.3597513 28.9528,23.718873 L28.9528,3.8567687 C28.96061,3.54311504 28.84147,3.23913652 28.62077,3.01455652 C28.400065,2.78996661 28.09732,2.66411557 27.78092,2.66411557 L25.82782,2.66411557 L25.82782,1.502406 C25.82782,0.861527739 25.30242,0.340696435 24.65592,0.340696435 L15.28092,0.340696435 C14.63442,0.340696435 14.10902,0.861527739 14.10902,1.502406 L14.10902,2.66411557 L12.15592,2.66411557 C11.50942,2.66411557 10.98402,3.18494687 10.98402,3.82582513 L10.98402,23.7191556 C10.98402,24.3600338 11.50942,24.8808651 12.15592,24.8808651 L13.8591,24.8805826 Z M19.9685,35.3358686 L19.18725,32.7414278 L20.74975,32.7414278 L19.9685,35.3358686 Z M22.99195,30.3948122 L16.93745,30.3948122 L16.2187,24.8806817 L23.7187,24.8806817 L22.99195,30.3948122 Z M13.32795,4.61792831 L26.60895,4.61792831 L26.60895,22.5570594 L13.32795,22.5570594 L13.32795,4.61792831 Z" id="Fill-1"></path>
                <path d="M1.219,37.5509401 L10.594,37.5509401 C11.2405,37.5509401 11.7659,37.0301088 11.7659,36.3892306 C11.7659,35.7483523 11.2405,35.227521 10.594,35.227521 L1.219,35.227521 C0.5725,35.227521 0.0471,35.7483523 0.0471,36.3892306 C0.0471,37.0301088 0.5725,37.5509401 1.219,37.5509401 Z" id="Fill-2"></path>
                <path d="M15.4765,35.7462711 C15.43353,35.6823765 15.38275,35.622358 15.32806,35.5681436 C15.05267,35.2951483 14.65616,35.1751063 14.27336,35.2506189 C14.19719,35.266108 14.12492,35.2893417 14.05461,35.3203175 C13.982345,35.3454872 13.91594,35.380336 13.851485,35.4209944 C13.788985,35.4655257 13.72844,35.5158671 13.671795,35.5681436 C13.617105,35.622358 13.566325,35.6823765 13.523355,35.7462711 C13.48234,35.8101656 13.447185,35.8759931 13.421795,35.9476297 C13.390545,36.0173284 13.367105,36.0889699 13.351485,36.1644776 C13.320235,36.3135598 13.320235,36.4645801 13.351485,36.6136624 C13.36711,36.68917 13.390545,36.7608116 13.421795,36.8305102 C13.447185,36.9021468 13.48234,36.9679744 13.523355,37.0318689 C13.566325,37.0957634 13.617105,37.1557819 13.671795,37.2099964 C13.728435,37.2622728 13.788985,37.3126112 13.851485,37.3571456 L14.05461,37.4655695 L14.27336,37.527526 C14.34953,37.5352706 14.42375,37.5352706 14.49992,37.527526 C14.810465,37.52559 15.10732,37.403613 15.32802,37.1867651 C15.38271,37.1325507 15.43349,37.0725322 15.47646,37.0086377 C15.517475,36.9447431 15.554585,36.8769825 15.585835,36.807279 C15.611225,36.7356424 15.63271,36.6640057 15.648335,36.5904311 C15.679585,36.4413489 15.679585,36.2903286 15.648335,36.1412464 C15.63271,36.0676717 15.611225,35.9960351 15.585835,35.9243985 C15.55263,35.862442 15.517475,35.8024235 15.47646,35.7462711 L15.4765,35.7462711 Z" id="Fill-3"></path>
            </g>
        </g>
    </g>
</svg>