<?xml version="1.0" encoding="UTF-8"?>
<svg width="38px" height="40px" viewBox="0 0 38 40" version="1.1" xmlns="http://www.w3.org/2000/svg" xmlns:xlink="http://www.w3.org/1999/xlink">
    <!-- Generator: Sketch 55.2 (78181) - https://sketchapp.com -->
    <title>Group 12</title>
    <desc>Created with Sketch.</desc>
    <g id="Page-1" stroke="none" stroke-width="1" fill="none" fill-rule="evenodd">
        <g id="ELEMENTOS" transform="translate(-48.000000, -367.000000)" fill="#000000">
            <g id="Group-12" transform="translate(48.000000, 367.000000)">
                <path d="M1.875,39.8165854 L36.25,39.8165854 C37.11328,39.8165854 37.8125,39.1344195 37.8125,38.2921951 L37.8125,1.70682927 C37.8125,0.864604878 37.11328,0.182439024 36.25,0.182439024 L1.875,0.182439024 C1.01172,0.182439024 0.3125,0.864604878 0.3125,1.70682927 L0.3125,38.2921951 C0.3125,39.1344195 1.01172,39.8165854 1.875,39.8165854 Z M28.437,36.7678049 L25.312,36.7678049 L25.312,33.7190244 L28.437,33.7190244 L28.437,36.7678049 Z M34.687,12.377561 L31.562,12.377561 L31.562,9.32878049 L34.687,9.32878049 L34.687,12.377561 Z M15.937,3.23121951 L15.937,9.32878049 L19.062,9.32878049 L19.062,3.23121951 L34.687,3.23121951 L34.687,6.28 L29.9995,6.28 C29.13622,6.28 28.437,6.96216585 28.437,7.80439024 L28.437,13.9019512 C28.437,14.7441756 29.13622,15.4263415 29.9995,15.4263415 L34.687,15.4263415 L34.687,24.5726829 L22.187,24.5726829 L22.187,27.6214634 L34.687,27.6214634 L34.687,36.7678049 L31.562,36.7678049 L31.562,32.1946341 C31.562,31.3524098 30.86278,30.6702439 29.9995,30.6702439 L23.7495,30.6702439 C22.88622,30.6702439 22.187,31.3524098 22.187,32.1946341 L22.187,36.7678049 L19.062,36.7678049 L19.062,24.5726829 L15.937,24.5726829 L15.937,36.7678049 L3.437,36.7678049 L3.437,18.475122 L15.937,18.475122 L15.937,21.5239024 L19.062,21.5239024 L19.062,12.377561 L15.937,12.377561 L15.937,15.4263415 L3.437,15.4263415 L3.437,3.23121951 L15.937,3.23121951 Z" id="Fill-4"></path>
            </g>
        </g>
    </g>
</svg>