<?xml version="1.0" encoding="UTF-8"?>
<svg width="17px" height="17px" viewBox="0 0 17 17" version="1.1" xmlns="http://www.w3.org/2000/svg" xmlns:xlink="http://www.w3.org/1999/xlink">
    <!-- Generator: Sketch 55.2 (78181) - https://sketchapp.com -->
    <title>Fill 1</title>
    <desc>Created with Sketch.</desc>
    <g id="Page-1" stroke="none" stroke-width="1" fill="none" fill-rule="evenodd">
        <g id="ELEMENTOS" transform="translate(-791.000000, -294.000000)" fill="#000000">
            <path d="M807.703979,309.3241 L802.580085,304.199432 C803.368158,303.164707 803.811627,301.834347 803.811627,300.405125 C803.811627,296.857497 800.954034,294 797.406286,294 C793.858539,294 791,296.858443 791,300.406071 C791,303.9537 793.857593,306.811197 797.40534,306.811197 C798.83461,306.811197 800.11511,306.367743 801.199775,305.579696 L806.324615,310.704364 C806.521404,310.901147 806.768083,311 807.01477,311 C807.261457,311 807.507197,310.901147 807.704925,310.704364 C808.098512,310.309868 808.098512,309.718597 807.704,309.324124 L807.703979,309.3241 Z M797.406286,304.840607 C794.942257,304.840607 792.971602,302.870018 792.971602,300.406071 C792.971602,297.942125 794.942257,295.971535 797.406286,295.971535 C799.870315,295.971535 801.840971,297.942125 801.840971,300.406071 C801.840971,302.869072 799.869393,304.840607 797.406286,304.840607 Z" id="Fill-1"></path>
        </g>
    </g>
</svg>