<?xml version="1.0" encoding="UTF-8"?>
<svg width="40px" height="40px" viewBox="0 0 40 40" version="1.1" xmlns="http://www.w3.org/2000/svg" xmlns:xlink="http://www.w3.org/1999/xlink">
    <!-- Generator: Sketch 55.2 (78181) - https://sketchapp.com -->
    <title>Group 3</title>
    <desc>Created with Sketch.</desc>
    <g id="Page-1" stroke="none" stroke-width="1" fill="none" fill-rule="evenodd">
        <g id="ELEMENTOS" transform="translate(-192.000000, -452.000000)" fill="#000000">
            <g id="Group-3" transform="translate(192.000000, 452.000000)">
                <path d="M20.0123171,19.7771977 C22.1625672,19.7771977 23.92091,18.0159954 23.92091,15.8622484 C23.92091,13.7085014 22.1625672,11.9455495 20.0123171,11.9455495 C17.8375671,11.9455495 16.0792691,13.7067518 16.0792691,15.8604988 C16.0792691,18.0142458 17.8376119,19.7771977 20.0123171,19.7771977 Z M20.0123171,8.27586207 C24.1903184,8.27586207 27.5862069,11.6773181 27.5862069,15.862069 C27.5862069,20.0468199 24.1902736,23.4482759 20.0123171,23.4482759 C15.809816,23.4482759 12.4137931,20.0468199 12.4137931,15.862069 C12.4137931,11.6773181 15.8097264,8.27586207 20.0123171,8.27586207 Z" id="Fill-1"></path>
                <path d="M31.5642502,8.41139628 C28.581628,5.454812 24.5086947,3.63716356 19.9998058,3.63716356 C15.4669169,3.63716356 11.394028,5.45485645 8.41136133,8.41317406 C5.45478356,11.3940695 3.63713911,15.4669674 3.63713911,19.9998662 C3.63713911,24.4113426 5.38193911,28.4114403 8.24291689,31.369669 L8.34013911,30.3279778 L8.36444133,30.2793644 C8.75159244,26.9824683 11.5640858,24.5344629 14.8608858,24.5344629 L25.0919969,24.5344629 C28.3888858,24.5344629 31.1284413,26.9580682 31.5884413,30.1838086 L31.612748,30.2810311 L31.7342769,31.3713001 C34.5936547,28.4112047 36.3400547,24.4112848 36.3627213,19.9997196 C36.3401524,15.4668207 34.5207213,11.3939228 31.5640547,8.41124962 L31.5642502,8.41139628 Z M31.2968902,36.4843469 C28.0972458,38.7152416 24.194668,40 20,40 C15.7812458,40 11.878668,38.7152861 8.654668,36.4600802 C3.418668,32.8732723 0,26.8369479 0,20.000044 C0,8.9462419 8.94622356,0 20,0 C31.0293347,0 39.9755569,8.9462419 40,20.000044 C39.9756947,26.8369479 36.5329791,32.8978502 31.2968902,36.4845247 L31.2968902,36.4843469 Z M20.6302236,36.3159421 C23.4427124,36.2430264 26.0608902,35.4183846 28.3142236,34.0607372 L28.3142236,34.0364304 L27.973948,30.6423341 C27.7308902,29.2117532 26.5191036,28.1701064 25.0885258,28.1701064 L14.8609702,28.1701064 C13.4061258,28.1701064 12.1699924,29.2360643 11.9512369,30.6909564 L11.9755391,30.6909564 L11.6352636,34.0364304 C14.0102858,35.4670114 16.7739302,36.3159466 19.7325969,36.3402577 C19.7569036,36.3645644 19.7569036,36.3645644 19.7812058,36.3402577 C19.8541213,36.3645644 19.9270413,36.3645644 19.9999569,36.3645644 C20.1944013,36.3645644 20.3628058,36.3645644 20.5572458,36.3159555 L20.6301613,36.3159555 L20.6302236,36.3159421 Z" id="Fill-2"></path>
            </g>
        </g>
    </g>
</svg>