<?xml version="1.0" encoding="UTF-8"?>
<svg width="13px" height="13px" viewBox="0 0 13 13" version="1.1" xmlns="http://www.w3.org/2000/svg" xmlns:xlink="http://www.w3.org/1999/xlink">
    <!-- Generator: Sketch 55.2 (78181) - https://sketchapp.com -->
    <title>Fill 1</title>
    <desc>Created with Sketch.</desc>
    <g id="Page-1" stroke="none" stroke-width="1" fill="none" fill-rule="evenodd">
        <g id="ELEMENTOS" transform="translate(-931.000000, -296.000000)" fill="#000000">
            <path d="M937.465433,296.00241 C936.632512,296.041253 935.874304,296.53493 935.450076,297.314645 L931.342688,304.871685 C930.895042,305.695191 930.885295,306.7157 931.31735,307.549203 C931.750061,308.382599 932.558282,308.901703 933.43799,308.911593 L941.512555,309 C942.392263,309.009057 943.210231,308.507603 943.657312,307.684115 C944.104958,306.86061 944.114705,305.840101 943.68265,305.006597 L939.716804,297.361325 C939.493297,296.931211 939.164556,296.576674 938.767589,296.336531 C938.369973,296.097111 937.919715,295.981288 937.465582,296.00246 L937.465433,296.00241 Z" id="Fill-1" transform="translate(937.500000, 302.500000) rotate(-270.000000) translate(-937.500000, -302.500000) "></path>
        </g>
    </g>
</svg>