<?xml version="1.0" encoding="UTF-8"?>
<svg width="18px" height="14px" viewBox="0 0 18 14" version="1.1" xmlns="http://www.w3.org/2000/svg" xmlns:xlink="http://www.w3.org/1999/xlink">
    <!-- Generator: Sketch 55.2 (78181) - https://sketchapp.com -->
    <title>Group 4</title>
    <desc>Created with Sketch.</desc>
    <g id="Page-1" stroke="none" stroke-width="1" fill="none" fill-rule="evenodd">
        <g id="ELEMENTOS" transform="translate(-883.000000, -295.000000)" fill="#000000">
            <g id="Group-4" transform="translate(883.000000, 295.000000)">
                <path d="M17.8977273,2.13602941 C17.8977273,2.70461471 17.4398932,3.16544118 16.875,3.16544118 L1.125,3.16544118 C0.560106818,3.16544118 0.102272727,2.70461471 0.102272727,2.13602941 L0.102272727,1.17497059 C0.102272727,0.606385294 0.560106818,0.145558824 1.125,0.145558824 L16.875,0.145558824 C17.4398932,0.145558824 17.8977273,0.606385294 17.8977273,1.17497059 L17.8977273,2.13602941 Z" id="Fill-1"></path>
                <path d="M14.8295455,7.48011765 C14.8295455,8.04870294 14.3717114,8.50952941 13.8068182,8.50952941 L4.19318182,8.50952941 C3.62828864,8.50952941 3.17045455,8.04870294 3.17045455,7.48011765 L3.17045455,6.51986176 C3.17045455,5.95127647 3.62828864,5.49045 4.19318182,5.49045 L13.8068182,5.49045 C14.3717114,5.49045 14.8295455,5.95127647 14.8295455,6.51986176 L14.8295455,7.48011765 Z" id="Fill-2"></path>
                <path d="M11.7613636,12.8250294 C11.7613636,13.3936147 11.3035295,13.8544412 10.7386364,13.8544412 L7.26136364,13.8544412 C6.69647045,13.8544412 6.23863636,13.3936147 6.23863636,12.8250294 L6.23863636,11.8639706 C6.23863636,11.2953853 6.69647045,10.8345588 7.26136364,10.8345588 L10.7386364,10.8345588 C11.3035295,10.8345588 11.7613636,11.2953853 11.7613636,11.8639706 L11.7613636,12.8250294 Z" id="Fill-3"></path>
            </g>
        </g>
    </g>
</svg>