<?xml version="1.0" encoding="UTF-8"?>
<svg width="42px" height="42px" viewBox="0 0 42 42" version="1.1" xmlns="http://www.w3.org/2000/svg" xmlns:xlink="http://www.w3.org/1999/xlink">
    <!-- Generator: Sketch 55.2 (78181) - https://sketchapp.com -->
    <title>Fill 1 Copy 3</title>
    <desc>Created with Sketch.</desc>
    <g id="Page-1" stroke="none" stroke-width="1" fill="none" fill-rule="evenodd">
        <g id="ELEMENTOS" transform="translate(-191.000000, -623.000000)" fill="#000000" stroke="#000000">
            <path d="M212,624 C206.695915,624 201.608603,626.106839 197.858495,629.858494 C194.106796,633.608516 192,638.695913 192,644 C192,649.304085 194.106839,654.391397 197.858495,658.141504 C201.608517,661.893204 206.695915,664 212,664 C217.304086,664 222.391398,661.893161 226.141506,658.141504 C229.893204,654.391483 232,649.304085 232,644 C231.994959,638.697634 229.884731,633.613763 226.136344,629.863656 C222.386323,626.115355 217.302366,624.005161 212,624 Z M201.221743,658.193547 C203.086839,656.87802 205.180259,655.916988 207.393119,655.359224 C208.006366,655.204652 208.436474,654.65359 208.434796,654.021848 L208.434796,650.881719 C208.434796,650.515457 208.317188,650.15759 208.098775,649.861891 C207.299033,648.700945 206.80342,647.358537 206.653872,645.957332 C206.623631,645.654915 206.467381,645.381074 206.223764,645.199612 C205.361872,644.601504 204.847764,643.6203 204.842732,642.571913 C204.84105,642.398864 204.911618,642.23421 205.035945,642.116601 C205.160272,641.995634 205.328284,641.931788 205.501321,641.935148 C205.791979,641.946907 206.074224,641.841062 206.284246,641.64113 C206.49594,641.441199 206.616908,641.163969 206.618585,640.873303 L206.652185,637.86255 L206.653867,637.86255 C206.650508,637.198894 206.773153,636.540313 207.015089,635.922034 C207.75096,634.110894 209.617583,632.158593 211.974658,632.158593 L212.507261,632.158593 L212.507261,633.148185 C212.507261,633.699238 212.922246,634.161303 213.471648,634.220098 C214.958529,634.440193 216.284164,635.276873 217.122529,636.525217 C217.482073,637.025905 217.675304,637.627367 217.676981,638.245647 L217.676981,640.826292 C217.676981,641.110232 217.791226,641.384098 217.992843,641.58569 C218.194461,641.787281 218.46665,641.901552 218.752241,641.901552 C218.921931,641.903234 219.084904,641.970438 219.204198,642.089724 C219.318443,642.203969 219.382288,642.358541 219.385652,642.519831 C219.377252,643.543014 218.883286,644.500692 218.054985,645.100477 C217.814731,645.280249 217.658478,645.550756 217.624878,645.84981 C217.480387,647.294713 216.962899,648.677423 216.124534,649.861896 C215.899398,650.160954 215.776753,650.525552 215.776753,650.898541 L215.776753,654.047057 C215.775071,654.673723 216.198461,655.221465 216.804968,655.381078 C218.947119,655.953981 220.969957,656.906627 222.777871,658.193594 C219.679764,660.550798 215.89271,661.827659 211.999807,661.827659 C208.106904,661.827659 204.320237,660.550755 201.221743,658.193594 L201.221743,658.193547 Z M224.447742,656.757074 C224.414138,656.723474 224.380538,656.691551 224.343574,656.662988 C222.394671,655.234902 220.212177,654.159633 217.891962,653.484235 L217.891962,651.088407 C218.834499,649.745999 219.449424,648.201999 219.686327,646.580881 C220.848951,645.564408 221.517639,644.096021 221.522671,642.5503 C221.524353,641.812752 221.232013,641.105397 220.70951,640.58458 C220.452452,640.327522 220.146671,640.124236 219.810671,639.983118 L219.810671,638.262688 C219.81739,637.180709 219.478009,636.12729 218.842929,635.251935 C217.828134,633.796967 216.344607,632.73344 214.640994,632.241182 L214.640994,631.09701 C214.640994,630.811393 214.526749,630.537527 214.325132,630.335935 C214.123514,630.134344 213.851325,630.021755 213.565734,630.021755 L211.952831,630.021755 C208.60268,630.021755 206.005304,632.666228 205.002293,635.1224 C204.657872,635.991002 204.481476,636.915088 204.481476,637.849195 L204.459635,639.974528 C204.111854,640.105578 203.792624,640.303827 203.52213,640.559216 C202.972753,641.080034 202.661915,641.80584 202.661915,642.563604 C202.665274,644.141238 203.364194,645.638184 204.572194,646.654657 C204.804048,648.220506 205.392065,649.712463 206.292624,651.014657 L206.292624,653.462571 C203.906861,654.136291 201.662087,655.231732 199.664667,656.696764 C199.627704,656.727005 199.594104,656.757246 199.5605,656.79085 C196.146521,653.470936 194.20265,648.922894 194.157489,644.161603 C194.113807,639.398593 195.975381,634.816658 199.327381,631.433002 C202.679209,628.04926 207.24394,626.147411 212.006951,626.147411 C216.769962,626.147411 221.335123,628.049303 224.686521,631.433002 C228.038348,634.816744 229.899854,639.398593 229.854693,644.161603 C229.811011,648.922894 227.865445,653.47128 224.451682,656.79085 L224.447742,656.757074 Z" id="Fill-1-Copy-3"></path>
        </g>
    </g>
</svg>