<?xml version="1.0" encoding="UTF-8"?>
<svg width="100px" height="100px" viewBox="0 0 100 100" version="1.1" xmlns="http://www.w3.org/2000/svg" xmlns:xlink="http://www.w3.org/1999/xlink">
    <!-- Generator: Sketch 55.2 (78181) - https://sketchapp.com -->
    <title>Group 3 Copy 9</title>
    <desc>Created with Sketch.</desc>
    <defs>
        <polygon id="path-1" points="0 0 99.270229 0 99.270229 99.4854962 0 99.4854962"></polygon>
    </defs>
    <g id="Page-1" stroke="none" stroke-width="1" fill="none" fill-rule="evenodd">
        <g id="ELEMENTOS" transform="translate(-20.000000, -126.000000)">
            <g id="Group-3-Copy-9" transform="translate(20.000000, 126.000000)">
                <mask id="mask-2" fill="white">
                    <use xlink:href="#path-1"></use>
                </mask>
                <g id="Clip-2"></g>
                <path d="M14.9587786,-2.84217094e-14 C6.69694656,-2.84217094e-14 0,6.69618321 0,14.9580153 L0,84.5320611 C0,92.7908397 6.69694656,99.4854962 14.9587786,99.4854962 L84.3122137,99.4854962 C92.5725191,99.4854962 99.270229,92.7908397 99.270229,84.5320611 L99.270229,14.9580153 C99.270229,6.69618321 92.5725191,-2.84217094e-14 84.3122137,-2.84217094e-14 L14.9587786,-2.84217094e-14 Z" id="Fill-1" fill="#5344c1" mask="url(#mask-2)"></path>
                <path d="M84.6687023,32.5320611 L25.0687023,32.5320611 L25.0687023,72.6954198 C25.0687023,75.2519084 22.9961832,77.3236641 20.4374046,77.3236641 C17.880916,77.3236641 15.8091603,75.2519084 15.8091603,72.6954198 L15.8091603,27.9015267 C15.8091603,25.3450382 17.880916,23.2725191 20.4374046,23.2725191 L80.0389313,23.2725191 C82.5969466,23.2725191 84.6687023,25.3450382 84.6687023,27.9015267 L84.6687023,32.5320611 Z" id="Path" fill="#FFFFFF" mask="url(#mask-2)"></path>
                <path d="M51.8412214,43.0870229 C51.8412214,40.5282443 53.9122137,38.4541985 56.470229,38.4541985 L79.6839695,38.4541985 L79.6839695,38.4526718 C82.2396947,38.4526718 84.3122137,40.5244275 84.3122137,43.0824427 C84.3122137,45.640458 82.2396947,47.7122137 79.6839695,47.7122137 L79.6839695,47.7145038 L56.470229,47.7145038 C53.9122137,47.7145038 51.8412214,45.6419847 51.8412214,43.0870229 L51.8412214,43.0870229 Z" id="Path" fill="#FFFFFF" mask="url(#mask-2)"></path>
                <path d="M84.6687023,57.748855 C84.6687023,60.3068702 82.5969466,62.378626 80.0389313,62.3801527 L80.0389313,62.4366412 L54.2580153,62.4366412 L59.0572519,70.2816794 C60.3885496,72.4648855 59.7022901,75.3145038 57.5175573,76.6450382 C55.3374046,77.9770992 52.4862595,77.2900763 51.1549618,75.1083969 L42.0137405,60.1625954 L42.010687,60.1641221 C40.6770992,57.9816794 41.3679389,55.1305344 43.5503817,53.8007634 C44.3534351,53.3091603 45.2442748,53.0961832 46.1183206,53.1267176 L46.1183206,53.121374 L70.9977099,53.121374 L75.4083969,53.121374 L84.6687023,53.121374 L84.6687023,57.748855 Z" id="Path" fill="#FFFFFF" mask="url(#mask-2)"></path>
            </g>
        </g>
    </g>
</svg>