<?xml version="1.0" encoding="UTF-8"?>
<svg width="382px" height="40px" viewBox="0 0 382 40" version="1.1" xmlns="http://www.w3.org/2000/svg" xmlns:xlink="http://www.w3.org/1999/xlink">
    <!-- Generator: Sketch 55.2 (78181) - https://sketchapp.com -->
    <title>Group 52</title>
    <desc>Created with Sketch.</desc>
    <defs>
        <polygon id="path-1" points="0.5949 0.883 7.2979 0.883 7.2979 40 0.5949 40"></polygon>
        <polygon id="path-3" points="0.2006 0.883 50.0336 0.883 50.0336 40 0.2006 40"></polygon>
        <polygon id="path-5" points="0.1635 0.883 49.9965 0.883 49.9965 39.9998 0.1635 39.9998"></polygon>
        <polygon id="path-7" points="0 40 381.807 40 381.807 0.883 0 0.883"></polygon>
    </defs>
    <g id="Page-1" stroke="none" stroke-width="1" fill="none" fill-rule="evenodd">
        <g id="ELEMENTOS" transform="translate(-20.000000, -42.000000)">
            <g id="Group-52" transform="translate(20.000000, 41.000000)">
                <polygon id="Fill-1" fill="#000000" points="235.847 40.1172 236.729 40.1172 236.729 0.9992 235.847 0.9992"></polygon>
                <g id="Group-51" transform="translate(0.000000, 0.117200)">
                    <g id="Group-4" transform="translate(146.000000, 0.000000)">
                        <mask id="mask-2" fill="white">
                            <use xlink:href="#path-1"></use>
                        </mask>
                        <g id="Clip-3"></g>
                        <path d="M7.2959,4.2334 C7.2959,2.3824 5.7959,0.8824 3.9459,0.8824 C2.0949,0.8824 0.5949,2.3824 0.5949,4.2334 L0.5969,4.2334 L0.5969,36.6514 C0.5969,38.5004 2.0969,40.0004 3.9479,40.0004 C5.7979,40.0004 7.2979,38.5004 7.2979,36.6514 L7.2979,4.2334 L7.2959,4.2334 Z" id="Fill-2" fill="#000000" mask="url(#mask-2)"></path>
                    </g>
                    <g id="Group-7" transform="translate(25.000000, 0.000000)">
                        <mask id="mask-4" fill="white">
                            <use xlink:href="#path-3"></use>
                        </mask>
                        <g id="Clip-6"></g>
                        <path d="M46.6816,0.8828 L3.5516,0.8828 C1.7006,0.8828 0.2006,2.3828 0.2006,4.2338 L0.2006,36.6518 C0.2006,38.4998 1.7006,39.9998 3.5516,39.9998 C5.4016,39.9998 6.9016,38.4998 6.9016,36.6518 L6.9016,7.5838 L43.3316,7.5838 L43.3316,22.4838 L22.1356,22.4838 L22.1356,22.4868 C21.5026,22.4668 20.8586,22.6188 20.2766,22.9758 C18.6946,23.9388 18.1986,26.0008 19.1626,27.5808 L19.1626,27.5778 L25.7806,38.3948 C26.7436,39.9748 28.8056,40.4738 30.3856,39.5078 C31.9646,38.5448 32.4616,36.4828 31.4986,34.9038 L28.0256,29.2238 L46.6816,29.2238 L46.6816,29.1838 C48.5336,29.1838 50.0336,27.6838 50.0336,25.8328 L50.0336,4.2338 C50.0336,2.3828 48.5336,0.8828 46.6816,0.8828" id="Fill-5" fill="#000000" mask="url(#mask-4)"></path>
                    </g>
                    <g id="Group-10" transform="translate(164.000000, 0.000000)">
                        <mask id="mask-6" fill="white">
                            <use xlink:href="#path-5"></use>
                        </mask>
                        <g id="Clip-9"></g>
                        <path d="M46.6445,0.8828 L3.5145,0.8828 C1.6635,0.8828 0.1635,2.3828 0.1635,4.2338 L0.1635,36.6518 C0.1635,38.4998 1.6635,39.9998 3.5145,39.9998 C5.3645,39.9998 6.8645,38.4998 6.8645,36.6518 L6.8645,7.5838 L43.2955,7.5838 L43.2955,22.4838 L20.0105,22.4838 L20.0105,22.4858 C18.1615,22.4858 16.6615,23.9858 16.6615,25.8358 C16.6615,27.6868 18.1615,29.1868 20.0105,29.1868 L20.0105,29.1838 L46.6445,29.2238 L46.6445,29.1838 C48.4965,29.1838 49.9965,27.6838 49.9965,25.8328 L49.9965,4.2338 C49.9965,2.3828 48.4965,0.8828 46.6445,0.8828" id="Fill-8" fill="#000000" mask="url(#mask-6)"></path>
                    </g>
                    <path d="M259.4277,7.9082 L260.7517,7.9082 C261.3867,7.9082 261.6947,7.3612 261.6947,6.7572 C261.6947,6.2572 261.4437,5.7022 260.7607,5.7022 L259.4277,5.7022 L259.4277,7.9082 Z M259.4277,8.6762 L259.4277,11.8612 L258.5457,11.8612 L258.5457,4.9322 L260.9347,4.9322 C262.1627,4.9322 262.5937,5.7982 262.5937,6.6602 C262.5937,7.4752 262.1437,8.0992 261.3277,8.2452 L261.3277,8.2632 C262.1247,8.3872 262.4127,8.6572 262.4597,10.0472 C262.4697,10.3452 262.5657,11.4292 262.6987,11.8612 L261.7787,11.8612 C261.5307,11.3812 261.5857,10.4792 261.5107,9.5582 C261.4437,8.7142 260.7607,8.6762 260.4657,8.6762 L259.4277,8.6762 Z" id="Fill-11" fill="#000000"></path>
                    <polygon id="Fill-13" fill="#000000" points="267.1943 11.8613 267.1943 4.9323 270.7643 4.9323 270.7643 5.7023 268.0783 5.7023 268.0783 7.9263 270.5723 7.9263 270.5723 8.6943 268.0783 8.6943 268.0783 11.0933 270.8233 11.0933 270.8233 11.8613"></polygon>
                    <polygon id="Fill-15" fill="#000000" points="277.6973 11.8613 276.6393 11.8613 274.6353 4.9323 275.5943 4.9323 277.1783 11.0263 277.1983 11.0263 278.8193 4.9323 279.7193 4.9323"></polygon>
                    <mask id="mask-8" fill="white">
                        <use xlink:href="#path-7"></use>
                    </mask>
                    <g id="Clip-18"></g>
                    <polygon id="Fill-17" fill="#000000" mask="url(#mask-8)" points="284.032 11.861 284.916 11.861 284.916 4.932 284.032 4.932"></polygon>
                    <path d="M290.5596,9.7988 L290.5596,9.9998 C290.5596,10.9408 291.1556,11.2368 291.7216,11.2368 C292.4226,11.2368 292.9596,10.9408 292.9596,10.1148 C292.9596,8.5798 289.8516,8.7518 289.8516,6.6698 C289.8516,5.4418 290.7236,4.7898 291.8836,4.7898 C293.1516,4.7898 293.8626,5.4038 293.8036,6.8158 L292.8816,6.8158 C292.8916,6.0558 292.6526,5.5578 291.8186,5.5578 C291.2906,5.5578 290.7516,5.8258 290.7516,6.5728 C290.7516,8.0998 293.8626,7.8788 293.8626,10.0758 C293.8626,11.5348 292.8546,12.0048 291.7126,12.0048 C289.6686,12.0248 289.6686,10.4598 289.6876,9.7988 L290.5596,9.7988 Z" id="Fill-19" fill="#000000" mask="url(#mask-8)"></path>
                    <polygon id="Fill-20" fill="#000000" mask="url(#mask-8)" points="298.624 11.861 299.508 11.861 299.508 4.932 298.624 4.932"></polygon>
                    <path d="M307.7725,2.8516 L306.5155,4.2046 L305.8745,4.2046 L306.7265,2.8516 L307.7725,2.8516 Z M307.8965,9.3666 L307.8965,7.0266 C307.8965,5.5766 306.9005,5.5286 306.6215,5.5286 C306.3425,5.5286 305.3435,5.5766 305.3435,7.0266 L305.3435,9.3666 C305.3435,10.8826 305.7875,11.2656 306.6215,11.2656 C307.4565,11.2656 307.8965,10.8826 307.8965,9.3666 L307.8965,9.3666 Z M304.4445,9.3276 L304.4445,7.0536 C304.4445,5.6726 305.1515,4.7896 306.6215,4.7896 C308.0885,4.7896 308.7985,5.6726 308.7985,7.0536 L308.7985,9.3276 C308.7985,11.2476 308.0885,12.0046 306.6215,12.0046 C305.1515,12.0046 304.4445,11.2476 304.4445,9.3276 L304.4445,9.3276 Z" id="Fill-21" fill="#000000" mask="url(#mask-8)"></path>
                    <polygon id="Fill-22" fill="#000000" mask="url(#mask-8)" points="318.4268 4.9326 318.4268 11.8616 317.2178 11.8616 314.4848 5.8546 314.4638 5.8546 314.4638 11.8616 313.6788 11.8616 313.6788 4.9326 314.9248 4.9326 317.6198 10.8626 317.6418 10.8626 317.6418 4.9326"></polygon>
                    <polygon id="Fill-23" fill="#000000" mask="url(#mask-8)" points="331.1582 11.8613 330.1032 11.8613 328.0962 4.9323 329.0552 4.9323 330.6392 11.0263 330.6592 11.0263 332.2802 4.9323 333.1822 4.9323"></polygon>
                    <polygon id="Fill-24" fill="#000000" mask="url(#mask-8)" points="337.495 11.861 338.379 11.861 338.379 4.932 337.495 4.932"></polygon>
                    <path d="M344.2061,7.9082 L345.5301,7.9082 C346.1631,7.9082 346.4701,7.3612 346.4701,6.7572 C346.4701,6.2572 346.2191,5.7022 345.5391,5.7022 L344.2061,5.7022 L344.2061,7.9082 Z M344.2061,8.6762 L344.2061,11.8612 L343.3221,11.8612 L343.3221,4.9322 L345.7101,4.9322 C346.9381,4.9322 347.3721,5.7982 347.3721,6.6602 C347.3721,7.4752 346.9201,8.0992 346.1041,8.2452 L346.1041,8.2632 C346.9011,8.3872 347.1891,8.6572 347.2361,10.0472 C347.2451,10.3452 347.3421,11.4292 347.4771,11.8612 L346.5571,11.8612 C346.3061,11.3812 346.3641,10.4792 346.2871,9.5582 C346.2191,8.7142 345.5391,8.6762 345.2411,8.6762 L344.2061,8.6762 Z" id="Fill-25" fill="#000000" mask="url(#mask-8)"></path>
                    <polygon id="Fill-26" fill="#000000" mask="url(#mask-8)" points="355.8584 4.9326 355.8584 5.7026 354.0354 5.7026 354.0354 11.8616 353.1514 11.8616 353.1514 5.7026 351.3314 5.7026 351.3314 4.9326"></polygon>
                    <path d="M360.0381,4.9326 L360.9191,4.9326 L360.9191,9.3666 C360.9191,10.8826 361.3811,11.2656 362.2151,11.2656 C363.0501,11.2656 363.5091,10.8826 363.5091,9.3666 L363.5091,4.9326 L364.3921,4.9326 L364.3921,9.3276 C364.3921,11.2466 363.6831,12.0046 362.2151,12.0046 C360.7451,12.0046 360.0381,11.2466 360.0381,9.3276 L360.0381,4.9326 Z" id="Fill-27" fill="#000000" mask="url(#mask-8)"></path>
                    <path d="M371.3252,5.749 L371.3062,5.749 L370.2212,9.443 L372.4382,9.443 L371.3252,5.749 Z M370.7882,4.933 L371.9112,4.933 L374.1662,11.861 L373.1772,11.861 L372.6782,10.211 L370.0012,10.211 L369.4832,11.861 L368.5902,11.861 L370.7882,4.933 Z" id="Fill-28" fill="#000000" mask="url(#mask-8)"></path>
                    <polygon id="Fill-29" fill="#000000" mask="url(#mask-8)" points="378.3818 11.8613 378.3818 4.9323 379.2638 4.9323 379.2638 11.0933 381.8068 11.0933 381.8068 11.8613"></polygon>
                    <polygon id="Fill-30" fill="#000000" mask="url(#mask-8)" points="258.679 23.381 259.563 23.381 259.563 16.454 258.679 16.454"></polygon>
                    <polygon id="Fill-31" fill="#000000" mask="url(#mask-8)" points="269.3232 16.4541 269.3232 23.3811 268.1162 23.3811 265.3812 17.3751 265.3622 17.3751 265.3622 23.3811 264.5742 23.3811 264.5742 16.4541 265.8212 16.4541 268.5162 22.3841 268.5382 22.3841 268.5382 16.4541"></polygon>
                    <polygon id="Fill-32" fill="#000000" mask="url(#mask-8)" points="275.0576 23.3809 274.2336 23.3809 274.2336 16.4539 275.6626 16.4539 277.4096 22.2689 277.4276 22.2689 279.1926 16.4539 280.6506 16.4539 280.6506 23.3809 279.7686 23.3809 279.7686 17.2219 279.7476 17.2219 277.8116 23.3809 276.9756 23.3809 275.0776 17.2219 275.0576 17.2219"></polygon>
                    <polygon id="Fill-33" fill="#000000" mask="url(#mask-8)" points="285.5107 23.3809 285.5107 16.4539 289.0807 16.4539 289.0807 17.2219 286.3947 17.2219 286.3947 19.4479 288.8887 19.4479 288.8887 20.2139 286.3947 20.2139 286.3947 22.6139 289.1397 22.6139 289.1397 23.3809"></polygon>
                    <path d="M294.4687,19.4277 L295.7927,19.4277 C296.4257,19.4277 296.7337,18.8807 296.7337,18.2777 C296.7337,17.7787 296.4827,17.2217 295.8027,17.2217 L294.4687,17.2217 L294.4687,19.4277 Z M294.4687,20.1957 L294.4687,23.3807 L293.5847,23.3807 L293.5847,16.4537 L295.9737,16.4537 C297.2017,16.4537 297.6357,17.3177 297.6357,18.1807 C297.6357,18.9967 297.1827,19.6197 296.3667,19.7647 L296.3667,19.7827 C297.1637,19.9067 297.4517,20.1767 297.4987,21.5677 C297.5087,21.8657 297.6047,22.9487 297.7407,23.3807 L296.8197,23.3807 C296.5697,22.9017 296.6277,21.9997 296.5497,21.0787 C296.4827,20.2347 295.8027,20.1957 295.5047,20.1957 L294.4687,20.1957 Z" id="Fill-34" fill="#000000" mask="url(#mask-8)"></path>
                    <path d="M302.916,21.3184 L302.916,21.5194 C302.916,22.4604 303.511,22.7564 304.076,22.7564 C304.776,22.7564 305.313,22.4604 305.313,21.6344 C305.313,20.0994 302.206,20.2724 302.206,18.1904 C302.206,16.9624 303.08,16.3094 304.24,16.3094 C305.506,16.3094 306.216,16.9234 306.159,18.3354 L305.238,18.3354 C305.248,17.5764 305.007,17.0784 304.172,17.0784 C303.645,17.0784 303.108,17.3454 303.108,18.0944 C303.108,19.6204 306.216,19.3984 306.216,21.5964 C306.216,23.0544 305.208,23.5264 304.066,23.5264 C302.022,23.5454 302.022,21.9804 302.042,21.3184 L302.916,21.3184 Z" id="Fill-35" fill="#000000" mask="url(#mask-8)"></path>
                    <polygon id="Fill-36" fill="#000000" mask="url(#mask-8)" points="310.98 23.381 311.864 23.381 311.864 16.454 310.98 16.454"></polygon>
                    <polygon id="Fill-37" fill="#000000" mask="url(#mask-8)" points="319.2354 23.3809 318.1804 23.3809 316.1744 16.4539 317.1324 16.4539 318.7174 22.5459 318.7364 22.5459 320.3584 16.4539 321.2604 16.4539"></polygon>
                    <path d="M327.2041,17.2695 L327.1851,17.2695 L326.1021,20.9625 L328.3171,20.9625 L327.2041,17.2695 Z M326.6671,16.4545 L327.7901,16.4545 L330.0451,23.3805 L329.0561,23.3805 L328.5581,21.7305 L325.8801,21.7305 L325.3621,23.3805 L324.4721,23.3805 L326.6671,16.4545 Z" id="Fill-38" fill="#000000" mask="url(#mask-8)"></path>
                    <path d="M340.5869,22.6143 L341.4209,22.6143 C342.6499,22.6143 343.1019,22.1523 343.1019,20.5413 L343.1019,19.1403 C343.1019,17.7393 342.6679,17.2213 341.7469,17.2213 L340.5869,17.2213 L340.5869,22.6143 Z M339.7059,16.4543 L341.8339,16.4543 C342.7179,16.4543 343.3509,16.7713 343.6969,17.5103 C343.9739,18.0943 344.0039,19.4753 344.0039,19.6963 C344.0039,21.1753 343.8679,22.0283 343.5799,22.4893 C343.2069,23.0833 342.5069,23.3813 341.2969,23.3813 L339.7059,23.3813 L339.7059,16.4543 Z" id="Fill-39" fill="#000000" mask="url(#mask-8)"></path>
                    <polygon id="Fill-40" fill="#000000" mask="url(#mask-8)" points="348.8437 23.3809 348.8437 16.4539 352.4127 16.4539 352.4127 17.2219 349.7257 17.2219 349.7257 19.4479 352.2217 19.4479 352.2217 20.2139 349.7257 20.2139 349.7257 22.6139 352.4697 22.6139 352.4697 23.3809"></polygon>
                    <path d="M259.5635,31.082 L260.5315,31.082 C260.8975,31.082 261.7595,30.986 261.7595,29.903 C261.7595,28.847 260.9715,28.741 260.7825,28.741 L259.5635,28.741 L259.5635,31.082 Z M258.6795,34.901 L258.6795,27.975 L260.7335,27.975 C261.6635,27.975 262.6625,28.319 262.6625,29.95 C262.6625,31.524 261.4335,31.851 260.7235,31.851 L259.5635,31.851 L259.5635,34.901 L258.6795,34.901 Z" id="Fill-41" fill="#000000" mask="url(#mask-8)"></path>
                    <path d="M268.0596,30.9482 L269.3836,30.9482 C270.0166,30.9482 270.3236,30.4012 270.3236,29.7972 C270.3236,29.2992 270.0736,28.7412 269.3936,28.7412 L268.0596,28.7412 L268.0596,30.9482 Z M268.0596,31.7162 L268.0596,34.9012 L267.1756,34.9012 L267.1756,27.9742 L269.5646,27.9742 C270.7916,27.9742 271.2256,28.8372 271.2256,29.7022 C271.2256,30.5172 270.7736,31.1402 269.9576,31.2842 L269.9576,31.3022 C270.7546,31.4272 271.0426,31.6962 271.0896,33.0892 C271.0996,33.3862 271.1956,34.4692 271.3306,34.9012 L270.4106,34.9012 C270.1596,34.4222 270.2176,33.5192 270.1406,32.5982 C270.0736,31.7552 269.3936,31.7162 269.0956,31.7162 L268.0596,31.7162 Z" id="Fill-42" fill="#000000" mask="url(#mask-8)"></path>
                    <path d="M279.251,32.4063 L279.251,30.0653 C279.251,28.6163 278.253,28.5683 277.974,28.5683 C277.697,28.5683 276.698,28.6163 276.698,30.0653 L276.698,32.4063 C276.698,33.9233 277.14,34.3073 277.974,34.3073 C278.808,34.3073 279.251,33.9233 279.251,32.4063 M275.796,32.3693 L275.796,30.0943 C275.796,28.7133 276.507,27.8303 277.974,27.8303 C279.443,27.8303 280.153,28.7133 280.153,30.0943 L280.153,32.3693 C280.153,34.2873 279.443,35.0463 277.974,35.0463 C276.507,35.0463 275.796,34.2873 275.796,32.3693" id="Fill-43" fill="#000000" mask="url(#mask-8)"></path>
                    <polygon id="Fill-44" fill="#000000" mask="url(#mask-8)" points="288.0264 27.9746 288.9174 27.9746 287.0274 32.2636 287.0274 34.9016 286.1434 34.9016 286.1434 32.2636 284.2834 27.9746 285.2724 27.9746 286.6244 31.3226"></polygon>
                    <polygon id="Fill-45" fill="#000000" mask="url(#mask-8)" points="293.0771 34.9014 293.0771 27.9744 296.6461 27.9744 296.6461 28.7414 293.9581 28.7414 293.9581 30.9674 296.4541 30.9674 296.4541 31.7354 293.9581 31.7354 293.9581 34.1334 296.7021 34.1334 296.7021 34.9014"></polygon>
                    <path d="M304.2217,29.8838 C304.2307,29.4888 304.2007,29.0968 304.0197,28.8758 C303.8367,28.6548 303.4247,28.5788 303.2417,28.5788 C302.5127,28.5788 302.2247,29.0198 302.1967,29.1158 C302.1677,29.1938 301.9947,29.3648 301.9947,30.5548 L301.9947,32.4058 C301.9947,34.1058 302.5497,34.3078 303.2327,34.3078 C303.5017,34.3078 304.3177,34.2108 304.3267,32.8578 L305.2387,32.8578 C305.2767,35.0458 303.7317,35.0458 303.2797,35.0458 C302.4167,35.0458 301.0927,34.9878 301.0927,32.3008 L301.0927,30.3438 C301.0927,28.3868 301.9567,27.8298 303.3197,27.8298 C304.6907,27.8298 305.2177,28.5388 305.1327,29.8838 L304.2217,29.8838 Z" id="Fill-46" fill="#000000" mask="url(#mask-8)"></path>
                    <polygon id="Fill-47" fill="#000000" mask="url(#mask-8)" points="313.6855 27.9746 313.6855 28.7416 311.8625 28.7416 311.8625 34.9016 310.9805 34.9016 310.9805 28.7416 309.1575 28.7416 309.1575 27.9746"></polygon>
                    <path d="M321.3164,32.4063 L321.3164,30.0653 C321.3164,28.6163 320.3204,28.5683 320.0424,28.5683 C319.7624,28.5683 318.7644,28.6163 318.7644,30.0653 L318.7644,32.4063 C318.7644,33.9233 319.2074,34.3073 320.0424,34.3073 C320.8764,34.3073 321.3164,33.9233 321.3164,32.4063 M317.8644,32.3693 L317.8644,30.0943 C317.8644,28.7133 318.5724,27.8303 320.0424,27.8303 C321.5084,27.8303 322.2184,28.7133 322.2184,30.0943 L322.2184,32.3693 C322.2184,34.2873 321.5084,35.0463 320.0424,35.0463 C318.5724,35.0463 317.8644,34.2873 317.8644,32.3693" id="Fill-48" fill="#000000" mask="url(#mask-8)"></path>
                    <path d="M6.7012,20.4414 C6.7012,22.2924 5.2012,23.7924 3.3492,23.7924 C1.5002,23.7924 0.0002,22.2924 0.0002,20.4414 C0.0002,18.5904 1.5002,17.0904 3.3492,17.0904 C5.2012,17.0904 6.7012,18.5904 6.7012,20.4414" id="Fill-49" fill="#000000" mask="url(#mask-8)"></path>
                    <path d="M135.7314,4.2256 C135.7314,2.3796 134.2354,0.8826 132.3894,0.8826 C131.2294,0.8826 130.2074,1.4756 129.6094,2.3746 L129.6004,2.3696 L110.8154,30.6006 L92.0314,2.3696 L92.0224,2.3746 C91.4224,1.4756 90.4034,0.8826 89.2424,0.8826 C87.3964,0.8826 85.8994,2.3796 85.8994,4.2256 C85.8994,4.9096 86.1074,5.5456 86.4604,6.0756 L86.4524,6.0806 L108.0244,38.5056 L108.0334,38.4996 C108.6324,39.3996 109.6554,39.9926 110.8154,39.9926 C111.9754,39.9926 112.9974,39.3996 113.5954,38.4996 L113.6044,38.5056 L135.1794,6.0806 L135.1704,6.0756 C135.5244,5.5456 135.7314,4.9096 135.7314,4.2256" id="Fill-50" fill="#000000" mask="url(#mask-8)"></path>
                </g>
            </g>
        </g>
    </g>
</svg>